<svg width="249" height="279" viewBox="0 0 249 279" fill="none" xmlns="http://www.w3.org/2000/svg">
<g clip-path="url(#clip0_175_21)">
<g filter="url(#filter0_d_175_21)">
<path d="M116.071 18.5236C120.985 15.72 127.015 15.72 131.929 18.5236L225.914 72.1451C230.905 74.9924 233.985 80.2968 233.985 86.0424V192.958C233.985 198.703 230.905 204.008 225.914 206.855L131.929 260.476C127.015 263.28 120.985 263.28 116.071 260.476L22.0859 206.855C17.0955 204.008 14.0148 198.703 14.0148 192.958V86.0424C14.0148 80.2968 17.0955 74.9924 22.086 72.1451L116.071 18.5236Z" stroke="url(#paint0_linear_175_21)" stroke-width="20" shape-rendering="crispEdges"/>
</g>
<path d="M74.021 179.48L72.4875 99.5943L91.6587 79.6727L152.847 78.4981L172.769 97.6693L174.303 177.555L155.131 197.476L93.9426 198.651L74.021 179.48ZM142.515 177.995L151.017 169.16L149.823 106.951L140.988 98.4494L104.275 99.1541L95.7729 107.989L96.9671 170.197L105.802 178.699L142.515 177.995Z" fill="#F74581"/>
</g>
<defs>
<filter id="filter0_d_175_21" x="0.0147705" y="6.4209" width="247.97" height="274.158" filterUnits="userSpaceOnUse" color-interpolation-filters="sRGB">
<feFlood flood-opacity="0" result="BackgroundImageFix"/>
<feColorMatrix in="SourceAlpha" type="matrix" values="0 0 0 0 0 0 0 0 0 0 0 0 0 0 0 0 0 0 127 0" result="hardAlpha"/>
<feOffset dy="4"/>
<feGaussianBlur stdDeviation="2"/>
<feComposite in2="hardAlpha" operator="out"/>
<feColorMatrix type="matrix" values="0 0 0 0 0 0 0 0 0 0 0 0 0 0 0 0 0 0 0.25 0"/>
<feBlend mode="normal" in2="BackgroundImageFix" result="effect1_dropShadow_175_21"/>
<feBlend mode="normal" in="SourceGraphic" in2="effect1_dropShadow_175_21" result="shape"/>
</filter>
<linearGradient id="paint0_linear_175_21" x1="124" y1="14" x2="124" y2="265" gradientUnits="userSpaceOnUse">
<stop stop-color="#F74581"/>
<stop offset="0.55" stop-color="#813380"/>
<stop offset="1" stop-color="#1A237E"/>
</linearGradient>
<clipPath id="clip0_175_21">
<rect width="249" height="279" fill="white"/>
</clipPath>
</defs>
</svg>
